<?xml version="1.0" encoding="UTF-8" standalone="no"?><!DOCTYPE svg PUBLIC "-//W3C//DTD SVG 1.1//EN" "http://www.w3.org/Graphics/SVG/1.1/DTD/svg11.dtd"><svg width="100%" height="100%" viewBox="0 0 629 432" version="1.1" xmlns="http://www.w3.org/2000/svg" xmlns:xlink="http://www.w3.org/1999/xlink" xml:space="preserve" xmlns:serif="http://www.serif.com/" style="fill-rule:evenodd;clip-rule:evenodd;stroke-linejoin:round;stroke-miterlimit:1.41421;"><rect id="logo-kitab-kajian-v1-1-0" x="0" y="0" width="629" height="432" style="fill:none;"/><g id="kitab-text"><path d="M142.365,175.56c0.581,0.706 1.243,1.567 1.985,2.583c0.742,1.016 1.319,2.292 1.731,3.827c0.705,2.633 0.772,5.221 0.199,7.764c-0.572,2.544 -1.63,4.884 -3.173,7.022c-1.543,2.138 -3.477,3.988 -5.801,5.551c-2.324,1.564 -4.839,2.708 -7.544,3.432c-2.048,0.549 -4.037,0.729 -5.968,0.542c-1.931,-0.188 -3.717,-0.709 -5.356,-1.563c-1.64,-0.854 -3.055,-2.042 -4.247,-3.564c-1.191,-1.523 -2.071,-3.344 -2.639,-5.465c-1.196,-4.46 -0.803,-8.699 1.177,-12.717c1.979,-4.018 4.932,-7.768 8.858,-11.249c3.926,-3.482 8.532,-6.694 13.817,-9.639c5.284,-2.944 10.634,-5.572 16.049,-7.885c5.415,-2.313 10.624,-4.297 15.627,-5.951c5.004,-1.654 9.15,-2.922 12.441,-3.804c4.095,-1.097 7.557,-2.142 10.386,-3.135c2.83,-0.994 4.829,-1.647 5.999,-1.961c0.585,-0.156 1.263,-0.259 2.033,-0.309c0.771,-0.05 1.224,0.181 1.362,0.693c0.195,0.731 -0.038,1.323 -0.701,1.775c-0.662,0.451 -1.322,0.766 -1.981,0.942c-1.754,0.47 -3.474,0.853 -5.158,1.147c-1.685,0.295 -3.168,0.535 -4.45,0.722c-1.112,0.533 -2.658,1.633 -4.641,3.301c-1.983,1.668 -3.682,3.514 -5.099,5.539c-2.867,4.217 -5.189,8.346 -6.967,12.388c-1.777,4.042 -3.278,8.167 -4.501,12.374c-1.224,4.207 -2.362,8.588 -3.415,13.141c-1.053,4.553 -2.298,9.412 -3.735,14.578c-1.126,3.985 -2.578,7.999 -4.356,12.041c-1.777,4.042 -4.055,7.826 -6.832,11.353c-2.778,3.526 -6.145,6.681 -10.101,9.466c-3.956,2.784 -8.676,4.911 -14.16,6.38c-2.194,0.588 -4.501,0.971 -6.922,1.149c-2.421,0.179 -4.747,-0.021 -6.979,-0.598c-2.231,-0.578 -4.209,-1.596 -5.932,-3.054c-1.723,-1.459 -2.937,-3.504 -3.642,-6.136c-0.529,-1.975 -0.466,-3.931 0.19,-5.87c0.656,-1.939 2.081,-3.203 4.275,-3.791c1.535,-0.411 2.993,-0.234 4.374,0.533c1.381,0.766 2.277,1.917 2.689,3.453c0.372,1.389 0.254,2.557 -0.354,3.504c-0.609,0.946 -1.505,1.696 -2.689,2.248c1.111,3.856 2.823,6.297 5.136,7.323c2.312,1.026 5.26,1.059 8.843,0.099c3.656,-0.979 6.842,-2.617 9.557,-4.912c2.716,-2.295 5.044,-5.015 6.983,-8.16c1.94,-3.145 3.613,-6.552 5.02,-10.221c1.408,-3.668 2.612,-7.361 3.615,-11.078c1.002,-3.717 1.897,-7.326 2.682,-10.828c0.786,-3.502 1.597,-6.619 2.432,-9.351c1.564,-5.278 3.175,-9.941 4.833,-13.991c1.658,-4.049 3.693,-7.788 6.105,-11.216c2.412,-3.429 5.304,-6.672 8.678,-9.731c3.373,-3.059 7.52,-6.228 12.441,-9.506l-0.059,-0.219c-3.51,0.94 -7.68,2.195 -12.51,3.764c-4.831,1.568 -9.799,3.428 -14.904,5.58c-5.105,2.152 -10.091,4.604 -14.956,7.358c-4.866,2.753 -9.065,5.799 -12.599,9.136c-3.534,3.337 -6.144,6.975 -7.832,10.915c-1.687,3.94 -1.933,8.14 -0.738,12.6c0.823,3.071 2.363,5.382 4.62,6.932c2.257,1.55 4.921,1.914 7.992,1.091c2.048,-0.548 3.863,-1.525 5.446,-2.928c1.583,-1.404 2.887,-3.047 3.911,-4.928c1.024,-1.881 1.707,-3.866 2.048,-5.956c0.341,-2.09 0.257,-4.085 -0.252,-5.986c-0.294,-1.097 -0.724,-2.118 -1.291,-3.064c-0.567,-0.945 -1.243,-1.861 -2.03,-2.747l0.98,-0.733Zm71.806,13.087c-0.632,1.737 -1.473,3.863 -2.523,6.378c-1.051,2.515 -2.241,5.165 -3.571,7.951c-1.331,2.786 -2.807,5.611 -4.43,8.475c-1.623,2.865 -3.369,5.488 -5.239,7.869c-1.869,2.382 -3.85,4.422 -5.943,6.119c-2.092,1.697 -4.245,2.803 -6.458,3.317c-2.559,0.686 -4.863,0.422 -6.913,-0.792c-2.049,-1.215 -3.407,-3.065 -4.073,-5.551c-0.627,-2.34 -0.756,-4.793 -0.386,-7.361c0.37,-2.568 0.863,-5.188 1.479,-7.861c0.563,-2.58 1.059,-5.045 1.487,-7.393c0.429,-2.349 0.418,-4.364 -0.033,-6.045c-0.627,-2.34 -1.639,-3.852 -3.037,-4.535c-1.398,-0.684 -3.157,-0.741 -5.277,-0.173c-0.366,0.098 -0.758,0.242 -1.177,0.433c-0.419,0.19 -0.848,0.344 -1.287,0.462c-0.22,0.059 -0.499,0.114 -0.837,0.166c-0.339,0.051 -0.558,-0.106 -0.656,-0.471c-0.098,-0.366 0.071,-0.686 0.508,-0.959c0.436,-0.274 0.837,-0.46 1.202,-0.557c0.804,-0.216 1.605,-0.372 2.402,-0.468c0.797,-0.096 1.598,-0.252 2.403,-0.467c3.656,-0.98 6.751,-2.808 9.286,-5.486c2.535,-2.678 4.856,-5.788 6.963,-9.331c2.107,-3.542 4.174,-7.309 6.2,-11.3c2.026,-3.991 4.312,-7.817 6.858,-11.477c2.546,-3.661 5.562,-6.957 9.047,-9.889c3.485,-2.933 7.714,-5.065 12.686,-6.397c1.463,-0.392 2.909,-0.623 4.341,-0.693c1.431,-0.07 2.746,0.087 3.946,0.471c1.2,0.384 2.266,0.999 3.199,1.846c0.932,0.848 1.584,1.966 1.957,3.355c0.431,1.609 0.501,3.04 0.21,4.294c-0.291,1.253 -0.842,2.341 -1.653,3.264c-0.811,0.922 -1.845,1.67 -3.102,2.242c-1.258,0.572 -2.581,1.044 -3.97,1.416c0.173,-1.692 0.305,-3.393 0.396,-5.102c0.09,-1.709 -0.09,-3.405 -0.54,-5.087c-0.47,-1.754 -1.217,-3.004 -2.239,-3.749c-1.023,-0.745 -2.448,-0.872 -4.276,-0.383c-2.12,0.569 -3.959,2.041 -5.517,4.418c-1.558,2.376 -3.121,5.244 -4.689,8.603c-1.569,3.359 -3.329,7.025 -5.283,10.996c-1.953,3.972 -4.39,7.818 -7.311,11.54c-2.921,3.722 -6.459,7.119 -10.612,10.191c-4.153,3.072 -9.228,5.411 -15.224,7.018l0.059,0.219c3.643,0.435 6.535,1.501 8.675,3.201c2.14,1.699 3.661,4.23 4.562,7.594c0.49,1.828 0.672,3.895 0.545,6.202c-0.126,2.306 -0.34,4.578 -0.642,6.814c-0.303,2.236 -0.561,4.343 -0.775,6.32c-0.215,1.978 -0.156,3.588 0.177,4.831c0.627,2.34 1.855,3.265 3.683,2.775c0.804,-0.215 1.849,-0.848 3.135,-1.898c1.286,-1.05 2.744,-2.557 4.372,-4.522c1.629,-1.964 3.383,-4.413 5.262,-7.346c1.878,-2.933 3.803,-6.426 5.773,-10.481c1.347,-2.869 2.462,-5.362 3.344,-7.479c0.883,-2.118 1.73,-4.147 2.542,-6.089l0.974,0.562Z" style="fill-rule:nonzero;"/><path d="M225.097,175.022c-1.987,6.332 -3.709,11.75 -5.167,16.255c-1.457,4.505 -2.61,8.321 -3.457,11.448c-0.847,3.126 -1.424,5.652 -1.732,7.576c-0.307,1.924 -0.314,3.434 -0.02,4.531c0.235,0.877 0.591,1.546 1.067,2.006c0.476,0.461 1.043,0.603 1.701,0.426c1.462,-0.392 3.303,-1.786 5.521,-4.183c2.218,-2.397 4.79,-6.181 7.714,-11.354c1.158,-2.112 2.284,-4.197 3.379,-6.254c1.095,-2.056 2.113,-4.034 3.054,-5.932c0.941,-1.898 1.776,-3.61 2.503,-5.137c0.727,-1.527 1.322,-2.745 1.784,-3.652l1.163,0.393c-0.564,1.405 -1.285,3.029 -2.163,4.871c-0.878,1.841 -1.827,3.781 -2.849,5.818c-1.022,2.037 -2.085,4.065 -3.189,6.086c-1.105,2.02 -2.192,3.957 -3.263,5.811c-3.104,5.377 -5.948,9.313 -8.532,11.808c-2.584,2.495 -5.156,4.085 -7.715,4.771c-2.413,0.647 -4.454,0.488 -6.123,-0.475c-1.668,-0.964 -2.787,-2.506 -3.355,-4.626c-0.392,-1.463 -0.524,-3.053 -0.397,-4.772c0.127,-1.719 0.535,-3.925 1.224,-6.618c0.69,-2.692 1.666,-6.069 2.929,-10.13c1.263,-4.061 2.854,-9.091 4.772,-15.091l11.151,-3.576Zm-0.163,-26.053c1.389,-0.373 2.751,-0.189 4.085,0.551c1.335,0.739 2.188,1.804 2.561,3.193c0.391,1.462 0.164,2.954 -0.683,4.473c-0.846,1.52 -2.001,2.476 -3.463,2.868c-1.609,0.431 -3.111,0.383 -4.506,-0.144c-1.395,-0.528 -2.318,-1.632 -2.769,-3.314c-0.45,-1.682 -0.188,-3.261 0.788,-4.737c0.976,-1.476 2.305,-2.44 3.987,-2.89Z" style="fill-rule:nonzero;"/><path d="M232.755,175.086l0.239,-2.18l8.445,-2.263l4.523,-16.024l11.728,-3.612l-5.283,16.697l13.929,-3.732l-0.458,2.239l-14.149,3.791c-1.84,6.292 -3.399,11.589 -4.676,15.889c-1.278,4.3 -2.265,7.855 -2.961,10.667c-0.696,2.812 -1.159,5.033 -1.389,6.662c-0.23,1.629 -0.198,2.992 0.096,4.088c0.255,0.951 0.717,1.65 1.385,2.098c0.669,0.448 1.478,0.544 2.429,0.29c1.828,-0.49 3.991,-2.069 6.489,-4.737c2.499,-2.668 5.025,-6.107 7.58,-10.318c1.713,-2.967 3.538,-6.395 5.474,-10.284c1.936,-3.888 3.679,-7.765 5.23,-11.628l0.805,0.372c-1.094,2.644 -2.499,5.881 -4.216,9.711c-1.716,3.83 -3.699,7.692 -5.947,11.586c-1.231,2.132 -2.542,4.188 -3.931,6.167c-1.39,1.979 -2.847,3.78 -4.372,5.403c-1.524,1.623 -3.075,2.999 -4.654,4.127c-1.578,1.128 -3.209,1.918 -4.89,2.368c-2.34,0.627 -4.53,0.646 -6.569,0.056c-2.039,-0.59 -3.411,-2.201 -4.116,-4.834c-0.509,-1.901 -0.631,-3.965 -0.366,-6.191c0.266,-2.226 0.788,-4.737 1.567,-7.532c0.78,-2.795 1.728,-5.91 2.845,-9.344c1.118,-3.434 2.264,-7.346 3.439,-11.736l-8.226,2.204Z" style="fill-rule:nonzero;"/><path d="M300.733,155.461l11.23,-3.715c-0.305,1.493 -0.83,3.338 -1.573,5.536c-0.744,2.197 -1.558,4.57 -2.442,7.119c-0.884,2.549 -1.767,5.176 -2.649,7.881c-0.882,2.705 -1.655,5.302 -2.321,7.793c-0.665,2.49 -1.131,4.77 -1.399,6.84c-0.269,2.07 -0.226,3.764 0.126,5.08c0.49,1.828 1.649,2.497 3.477,2.007c1.755,-0.47 3.857,-2.131 6.306,-4.981c2.45,-2.851 4.869,-6.399 7.258,-10.644c1.017,-1.761 2.023,-3.638 3.018,-5.628c0.995,-1.991 1.94,-3.949 2.834,-5.873c0.895,-1.925 1.71,-3.711 2.444,-5.357c0.735,-1.647 1.313,-2.997 1.736,-4.051l0.886,0.233c-1.216,3.069 -2.65,6.49 -4.304,10.263c-1.653,3.774 -3.764,7.886 -6.334,12.336c-2.569,4.451 -5.255,8.246 -8.057,11.387c-2.803,3.142 -5.886,5.163 -9.249,6.064c-2.34,0.627 -4.312,0.509 -5.914,-0.355c-1.603,-0.863 -2.64,-2.173 -3.11,-3.928c-0.157,-0.585 -0.267,-1.143 -0.331,-1.674c-0.064,-0.532 -0.062,-0.963 0.005,-1.295l-0.219,0.059c-1.581,3.167 -3.562,6.009 -5.944,8.528c-2.381,2.519 -5.217,4.22 -8.507,5.101c-1.755,0.471 -3.342,0.543 -4.762,0.218c-1.419,-0.325 -2.664,-0.951 -3.736,-1.879c-1.071,-0.928 -1.981,-2.055 -2.729,-3.383c-0.747,-1.328 -1.327,-2.76 -1.738,-4.295c-0.96,-3.583 -0.933,-7.43 0.081,-11.542c1.014,-4.112 2.633,-8.014 4.857,-11.705c2.224,-3.692 4.943,-6.928 8.155,-9.709c3.213,-2.781 6.501,-4.622 9.864,-5.523c2.56,-0.686 4.717,-0.676 6.474,0.029c1.756,0.705 3.423,2.1 5,4.185l1.567,-5.122Zm-25.381,36.894c0.568,2.121 1.41,3.874 2.526,5.26c1.116,1.386 2.808,1.775 5.074,1.168c1.516,-0.485 2.953,-1.555 4.312,-3.212c1.358,-1.658 2.579,-3.611 3.661,-5.86c1.082,-2.249 2.038,-4.68 2.866,-7.292c0.828,-2.612 1.469,-5.194 1.921,-7.745c0.453,-2.551 0.721,-4.915 0.804,-7.092c0.083,-2.177 -0.062,-3.961 -0.434,-5.35c-0.529,-1.974 -1.306,-3.412 -2.332,-4.313c-1.025,-0.9 -2.597,-1.067 -4.718,-0.499c-1.682,0.451 -3.245,1.418 -4.689,2.903c-1.444,1.484 -2.726,3.277 -3.848,5.38c-1.121,2.103 -2.116,4.388 -2.983,6.854c-0.868,2.466 -1.519,4.933 -1.955,7.4c-0.436,2.468 -0.677,4.786 -0.723,6.954c-0.046,2.167 0.126,3.982 0.518,5.444Z" style="fill-rule:nonzero;"/><path d="M353.951,100.057c-3.109,9.454 -5.928,17.87 -8.458,25.248c-2.529,7.378 -4.77,13.857 -6.724,19.435c-1.953,5.578 -3.598,10.408 -4.934,14.488c-1.336,4.081 -2.37,7.61 -3.1,10.588c-0.73,2.978 -1.17,5.505 -1.318,7.583c-0.149,2.077 -0.008,3.92 0.423,5.529c0.392,1.462 1.137,2.634 2.235,3.515c1.098,0.882 2.415,1.117 3.951,0.705c1.974,-0.529 3.773,-1.638 5.397,-3.327c1.625,-1.689 3.064,-3.701 4.32,-6.036c1.255,-2.335 2.328,-4.836 3.22,-7.505c0.892,-2.668 1.587,-5.264 2.086,-7.788c0.499,-2.524 0.8,-4.838 0.903,-6.943c0.102,-2.104 0.006,-3.704 -0.288,-4.801c-0.098,-0.366 -0.236,-0.662 -0.414,-0.888c-0.178,-0.227 -0.385,-0.485 -0.619,-0.775c-0.235,-0.29 -0.475,-0.676 -0.722,-1.158c-0.247,-0.483 -0.488,-1.163 -0.723,-2.04c-0.372,-1.389 -0.258,-2.791 0.343,-4.206c0.6,-1.415 1.631,-2.318 3.094,-2.71c1.243,-0.333 2.34,-0.333 3.291,-0.001c0.952,0.333 1.782,0.875 2.493,1.625c0.71,0.75 1.299,1.631 1.766,2.642c0.467,1.011 0.837,2.029 1.112,3.052c0.431,1.609 0.681,3.423 0.752,5.441c1.113,0.643 2.54,1.142 4.281,1.498c1.741,0.357 3.453,0.309 5.134,-0.141c2.486,-0.666 4.542,-1.844 6.166,-3.533c1.624,-1.689 2.912,-3.68 3.865,-5.973l0.945,0.452c-0.895,2.512 -2.285,4.707 -4.173,6.584c-1.887,1.878 -4.037,3.139 -6.45,3.786c-1.755,0.47 -3.433,0.567 -5.036,0.291c-1.602,-0.276 -3.162,-0.759 -4.679,-1.45c-0.078,4.096 -0.783,8.047 -2.114,11.852c-1.332,3.805 -3.165,7.274 -5.499,10.408c-2.334,3.133 -5.112,5.856 -8.332,8.169c-3.221,2.312 -6.769,3.988 -10.644,5.026c-4.095,1.098 -7.432,0.855 -10.011,-0.726c-2.579,-1.582 -4.348,-4.164 -5.308,-7.747c-0.314,-1.17 -0.455,-2.504 -0.425,-4.001c0.03,-1.497 0.3,-3.411 0.812,-5.742c0.512,-2.332 1.275,-5.26 2.29,-8.784c1.015,-3.524 2.369,-7.903 4.062,-13.138c1.693,-5.234 3.754,-11.507 6.183,-18.82c2.43,-7.312 5.297,-15.917 8.601,-25.815l12.246,-3.869Z" style="fill-rule:nonzero;"/></g><g id="kajian-text"><path d="M243.055,262.09c0.515,0.626 1.101,1.389 1.759,2.289c0.658,0.9 1.169,2.031 1.534,3.392c0.625,2.332 0.684,4.625 0.176,6.879c-0.507,2.254 -1.444,4.329 -2.812,6.223c-1.367,1.894 -3.081,3.534 -5.14,4.919c-2.059,1.385 -4.288,2.399 -6.685,3.041c-1.814,0.486 -3.577,0.646 -5.289,0.48c-1.711,-0.167 -3.293,-0.628 -4.746,-1.385c-1.452,-0.756 -2.707,-1.809 -3.763,-3.158c-1.056,-1.349 -1.835,-2.963 -2.339,-4.842c-1.059,-3.953 -0.711,-7.709 1.043,-11.27c1.755,-3.56 4.371,-6.883 7.85,-9.968c3.479,-3.085 7.56,-5.932 12.243,-8.541c4.683,-2.609 9.424,-4.938 14.222,-6.988c4.798,-2.049 9.414,-3.807 13.848,-5.273c4.434,-1.466 8.108,-2.589 11.024,-3.371c3.629,-0.972 6.696,-1.898 9.204,-2.778c2.507,-0.88 4.279,-1.459 5.316,-1.737c0.518,-0.139 1.119,-0.23 1.801,-0.274c0.683,-0.045 1.085,0.16 1.207,0.614c0.173,0.648 -0.034,1.172 -0.621,1.572c-0.587,0.401 -1.172,0.679 -1.755,0.835c-1.555,0.417 -3.079,0.756 -4.572,1.017c-1.492,0.261 -2.807,0.474 -3.943,0.64c-0.985,0.472 -2.355,1.447 -4.112,2.925c-1.757,1.477 -3.263,3.114 -4.518,4.908c-2.541,3.737 -4.599,7.396 -6.174,10.978c-1.575,3.581 -2.905,7.236 -3.989,10.965c-1.084,3.728 -2.093,7.609 -3.026,11.644c-0.933,4.035 -2.036,8.341 -3.309,12.918c-0.999,3.532 -2.285,7.088 -3.86,10.67c-1.575,3.582 -3.594,6.935 -6.055,10.06c-2.461,3.125 -5.445,5.921 -8.951,8.388c-3.505,2.467 -7.688,4.352 -12.547,5.654c-1.944,0.521 -3.989,0.86 -6.134,1.019c-2.145,0.158 -4.207,-0.019 -6.184,-0.531c-1.977,-0.512 -3.73,-1.414 -5.256,-2.706c-1.527,-1.292 -2.603,-3.105 -3.228,-5.438c-0.469,-1.749 -0.413,-3.483 0.168,-5.201c0.582,-1.718 1.844,-2.838 3.788,-3.359c1.361,-0.364 2.653,-0.207 3.877,0.472c1.223,0.679 2.017,1.699 2.382,3.06c0.33,1.231 0.225,2.266 -0.314,3.105c-0.539,0.839 -1.333,1.503 -2.383,1.992c0.985,3.417 2.502,5.58 4.552,6.489c2.049,0.91 4.661,0.939 7.836,0.088c3.24,-0.868 6.063,-2.319 8.469,-4.353c2.407,-2.033 4.469,-4.444 6.188,-7.231c1.718,-2.787 3.201,-5.805 4.448,-9.056c1.247,-3.251 2.315,-6.524 3.203,-9.817c0.889,-3.294 1.681,-6.492 2.377,-9.596c0.697,-3.103 1.415,-5.865 2.155,-8.286c1.386,-4.677 2.813,-8.809 4.283,-12.397c1.469,-3.588 3.272,-6.902 5.409,-9.94c2.138,-3.038 4.701,-5.912 7.69,-8.623c2.989,-2.71 6.664,-5.518 11.025,-8.423l-0.052,-0.194c-3.11,0.833 -6.806,1.945 -11.086,3.335c-4.281,1.39 -8.683,3.038 -13.207,4.945c-4.524,1.907 -8.941,4.08 -13.253,6.52c-4.312,2.44 -8.033,5.139 -11.164,8.096c-3.132,2.957 -5.445,6.181 -6.94,9.672c-1.496,3.491 -1.714,7.213 -0.655,11.165c0.73,2.721 2.094,4.769 4.094,6.143c2.001,1.374 4.361,1.696 7.083,0.967c1.814,-0.486 3.422,-1.351 4.825,-2.595c1.403,-1.244 2.558,-2.7 3.466,-4.366c0.907,-1.667 1.512,-3.427 1.815,-5.279c0.302,-1.851 0.228,-3.62 -0.224,-5.304c-0.26,-0.972 -0.641,-1.877 -1.144,-2.715c-0.502,-0.837 -1.101,-1.649 -1.798,-2.435l0.868,-0.649Zm63.629,11.597c-0.559,1.539 -1.305,3.423 -2.235,5.651c-0.931,2.229 -1.986,4.578 -3.165,7.046c-1.178,2.469 -2.487,4.973 -3.925,7.511c-1.438,2.538 -2.985,4.862 -4.642,6.973c-1.657,2.11 -3.412,3.918 -5.266,5.421c-1.854,1.504 -3.762,2.484 -5.723,2.94c-2.268,0.608 -4.31,0.374 -6.126,-0.702c-1.816,-1.076 -3.019,-2.716 -3.61,-4.919c-0.555,-2.073 -0.669,-4.247 -0.341,-6.523c0.328,-2.275 0.765,-4.597 1.311,-6.966c0.498,-2.286 0.937,-4.47 1.317,-6.551c0.38,-2.081 0.37,-3.867 -0.029,-5.357c-0.556,-2.073 -1.453,-3.413 -2.691,-4.018c-1.239,-0.606 -2.798,-0.657 -4.677,-0.154c-0.324,0.087 -0.672,0.215 -1.043,0.384c-0.371,0.169 -0.751,0.306 -1.14,0.41c-0.195,0.052 -0.442,0.101 -0.742,0.147c-0.3,0.045 -0.494,-0.094 -0.581,-0.418c-0.087,-0.324 0.063,-0.607 0.45,-0.849c0.386,-0.243 0.741,-0.407 1.065,-0.494c0.713,-0.191 1.423,-0.329 2.129,-0.414c0.706,-0.086 1.416,-0.224 2.129,-0.415c3.239,-0.868 5.982,-2.488 8.229,-4.861c2.246,-2.373 4.303,-5.129 6.17,-8.268c1.867,-3.139 3.698,-6.477 5.494,-10.014c1.795,-3.537 3.821,-6.927 6.077,-10.17c2.256,-3.244 4.928,-6.164 8.017,-8.763c3.088,-2.598 6.836,-4.488 11.242,-5.668c1.296,-0.348 2.578,-0.552 3.846,-0.614c1.268,-0.062 2.434,0.077 3.497,0.417c1.063,0.34 2.008,0.885 2.834,1.636c0.827,0.751 1.405,1.742 1.734,2.973c0.382,1.426 0.444,2.694 0.186,3.805c-0.257,1.11 -0.746,2.074 -1.464,2.892c-0.719,0.818 -1.635,1.48 -2.749,1.987c-1.114,0.507 -2.287,0.925 -3.518,1.255c0.154,-1.5 0.271,-3.007 0.351,-4.521c0.08,-1.515 -0.079,-3.018 -0.479,-4.508c-0.416,-1.555 -1.078,-2.662 -1.984,-3.322c-0.906,-0.66 -2.169,-0.773 -3.788,-0.339c-1.88,0.503 -3.509,1.808 -4.889,3.914c-1.381,2.106 -2.766,4.647 -4.156,7.624c-1.39,2.976 -2.95,6.224 -4.68,9.744c-1.731,3.519 -3.891,6.928 -6.479,10.226c-2.589,3.297 -5.724,6.308 -9.404,9.03c-3.68,2.722 -8.177,4.795 -13.49,6.219l0.052,0.194c3.228,0.385 5.79,1.331 7.687,2.836c1.897,1.506 3.244,3.749 4.043,6.73c0.434,1.62 0.595,3.452 0.483,5.496c-0.112,2.043 -0.302,4.056 -0.57,6.038c-0.268,1.981 -0.496,3.848 -0.687,5.601c-0.19,1.752 -0.137,3.179 0.158,4.28c0.555,2.074 1.643,2.893 3.263,2.459c0.713,-0.191 1.639,-0.751 2.778,-1.682c1.14,-0.93 2.432,-2.266 3.875,-4.007c1.443,-1.74 2.997,-3.91 4.662,-6.509c1.665,-2.599 3.37,-5.695 5.116,-9.288c1.194,-2.542 2.181,-4.751 2.964,-6.628c0.782,-1.876 1.532,-3.674 2.252,-5.395l0.862,0.498Z" style="fill-rule:nonzero;"/><path d="M331.198,258.264l9.952,-3.291c-0.271,1.322 -0.735,2.957 -1.394,4.905c-0.659,1.947 -1.38,4.05 -2.164,6.309c-0.784,2.258 -1.566,4.586 -2.347,6.983c-0.782,2.397 -1.467,4.699 -2.057,6.905c-0.589,2.207 -1.002,4.228 -1.24,6.062c-0.238,1.835 -0.2,3.335 0.112,4.501c0.434,1.62 1.461,2.213 3.081,1.779c1.555,-0.417 3.418,-1.888 5.588,-4.414c2.171,-2.526 4.315,-5.67 6.432,-9.432c0.901,-1.561 1.792,-3.223 2.674,-4.987c0.881,-1.764 1.719,-3.499 2.512,-5.205c0.793,-1.705 1.515,-3.288 2.165,-4.747c0.651,-1.459 1.164,-2.655 1.539,-3.589l0.784,0.206c-1.077,2.72 -2.348,5.751 -3.813,9.095c-1.465,3.344 -3.336,6.988 -5.613,10.931c-2.277,3.944 -4.657,7.307 -7.14,10.091c-2.484,2.784 -5.216,4.575 -8.196,5.373c-2.073,0.556 -3.82,0.451 -5.241,-0.314c-1.42,-0.766 -2.339,-1.926 -2.755,-3.481c-0.139,-0.518 -0.237,-1.013 -0.294,-1.484c-0.056,-0.471 -0.055,-0.853 0.005,-1.147l-0.194,0.052c-1.401,2.806 -3.157,5.325 -5.267,7.557c-2.11,2.233 -4.623,3.739 -7.539,4.521c-1.555,0.416 -2.961,0.481 -4.219,0.193c-1.258,-0.288 -2.361,-0.843 -3.311,-1.666c-0.949,-0.822 -1.755,-1.821 -2.418,-2.998c-0.662,-1.176 -1.176,-2.445 -1.541,-3.806c-0.85,-3.174 -0.826,-6.584 0.072,-10.227c0.899,-3.644 2.334,-7.102 4.305,-10.373c1.971,-3.271 4.379,-6.139 7.226,-8.603c2.847,-2.464 5.76,-4.095 8.741,-4.894c2.268,-0.608 4.18,-0.599 5.736,0.025c1.556,0.625 3.033,1.861 4.431,3.709l1.388,-4.539Zm-22.49,32.694c0.503,1.879 1.25,3.433 2.238,4.661c0.989,1.228 2.488,1.573 4.497,1.035c1.343,-0.43 2.616,-1.379 3.82,-2.847c1.204,-1.469 2.285,-3.199 3.244,-5.192c0.959,-1.994 1.806,-4.148 2.54,-6.462c0.734,-2.315 1.302,-4.603 1.703,-6.863c0.401,-2.26 0.638,-4.355 0.712,-6.285c0.073,-1.929 -0.055,-3.509 -0.385,-4.74c-0.469,-1.75 -1.157,-3.024 -2.066,-3.822c-0.908,-0.798 -2.302,-0.946 -4.181,-0.442c-1.49,0.399 -2.875,1.256 -4.155,2.571c-1.279,1.316 -2.416,2.905 -3.41,4.768c-0.993,1.864 -1.875,3.888 -2.643,6.074c-0.769,2.185 -1.347,4.371 -1.733,6.558c-0.386,2.186 -0.6,4.24 -0.641,6.161c-0.04,1.921 0.113,3.529 0.46,4.825Z" style="fill-rule:nonzero;"/><path d="M314.152,307c-1.49,0.399 -2.802,1.011 -3.935,1.835c-1.133,0.825 -2.036,1.796 -2.709,2.914c-0.673,1.118 -1.124,2.35 -1.354,3.696c-0.229,1.346 -0.162,2.7 0.203,4.06c0.937,3.499 2.681,6.053 5.23,7.662c2.549,1.608 5.67,1.918 9.364,0.928c3.693,-0.989 7.009,-3.128 9.947,-6.415c2.939,-3.288 5.557,-7.253 7.855,-11.897c2.297,-4.643 4.327,-9.701 6.09,-15.174c1.763,-5.472 3.332,-10.893 4.706,-16.261c1.374,-5.368 2.582,-10.449 3.624,-15.242c1.042,-4.794 1.976,-8.759 2.802,-11.897l9.881,-3.169c-1.932,7.046 -3.783,14.07 -5.552,21.072c-1.77,7.002 -3.671,13.97 -5.702,20.903c3.269,-2.056 6.23,-4.482 8.884,-7.276c2.654,-2.795 5.033,-5.776 7.135,-8.944c2.103,-3.167 3.996,-6.47 5.679,-9.907c1.683,-3.437 3.147,-6.85 4.392,-10.239l1.031,0.348c-1.232,3.178 -2.601,6.427 -4.107,9.747c-1.506,3.32 -3.302,6.597 -5.388,9.829c-2.085,3.233 -4.558,6.378 -7.419,9.436c-2.861,3.059 -6.319,5.964 -10.373,8.717c-1.455,4.418 -3.17,8.645 -5.144,12.681c-1.975,4.036 -4.357,7.713 -7.149,11.03c-2.792,3.318 -6.046,6.204 -9.764,8.658c-3.717,2.455 -7.973,4.324 -12.768,5.609c-1.944,0.521 -4.037,0.874 -6.279,1.058c-2.243,0.184 -4.369,0.024 -6.379,-0.479c-2.01,-0.503 -3.799,-1.412 -5.367,-2.729c-1.567,-1.316 -2.673,-3.172 -3.315,-5.57c-0.521,-1.943 -0.563,-3.72 -0.126,-5.331c0.436,-1.61 1.177,-3.058 2.221,-4.345c1.044,-1.287 2.352,-2.366 3.924,-3.239c1.572,-0.872 3.2,-1.534 4.884,-1.986c0.778,-0.208 1.569,-0.368 2.372,-0.479c0.804,-0.111 1.612,-0.206 2.424,-0.285l0.182,0.681Zm51.735,-81.781c1.231,-0.33 2.438,-0.167 3.62,0.488c1.183,0.656 1.939,1.599 2.269,2.83c0.347,1.296 0.146,2.617 -0.605,3.964c-0.75,1.347 -1.773,2.194 -3.069,2.541c-1.425,0.382 -2.756,0.34 -3.993,-0.128c-1.236,-0.467 -2.054,-1.446 -2.453,-2.936c-0.399,-1.49 -0.167,-2.89 0.698,-4.198c0.865,-1.308 2.042,-2.162 3.533,-2.561Z" style="fill-rule:nonzero;"/><path d="M391.981,241.353c-1.76,5.61 -3.287,10.412 -4.578,14.404c-1.292,3.992 -2.313,7.373 -3.063,10.144c-0.751,2.77 -1.263,5.008 -1.535,6.713c-0.272,1.705 -0.278,3.044 -0.018,4.015c0.209,0.778 0.524,1.371 0.945,1.778c0.422,0.408 0.925,0.534 1.508,0.378c1.296,-0.347 2.926,-1.583 4.892,-3.707c1.966,-2.124 4.244,-5.478 6.836,-10.061c1.026,-1.872 2.024,-3.719 2.994,-5.542c0.97,-1.822 1.872,-3.575 2.706,-5.256c0.834,-1.682 1.574,-3.2 2.218,-4.553c0.644,-1.353 1.171,-2.432 1.581,-3.236l1.031,0.349c-0.5,1.245 -1.139,2.683 -1.917,4.315c-0.778,1.632 -1.619,3.351 -2.525,5.156c-0.905,1.805 -1.847,3.603 -2.826,5.393c-0.978,1.79 -1.942,3.506 -2.891,5.15c-2.751,4.765 -5.271,8.252 -7.561,10.463c-2.289,2.211 -4.568,3.62 -6.836,4.228c-2.138,0.573 -3.947,0.432 -5.425,-0.421c-1.479,-0.854 -2.47,-2.221 -2.974,-4.1c-0.347,-1.296 -0.464,-2.705 -0.352,-4.228c0.113,-1.524 0.475,-3.478 1.085,-5.864c0.611,-2.386 1.476,-5.378 2.595,-8.977c1.119,-3.598 2.529,-8.056 4.23,-13.373l9.88,-3.168Zm-0.144,-23.087c1.231,-0.33 2.438,-0.167 3.62,0.488c1.183,0.655 1.939,1.599 2.269,2.83c0.347,1.296 0.146,2.617 -0.605,3.964c-0.75,1.347 -1.773,2.194 -3.069,2.541c-1.425,0.382 -2.756,0.339 -3.993,-0.128c-1.236,-0.467 -2.054,-1.446 -2.453,-2.936c-0.399,-1.491 -0.167,-2.89 0.698,-4.198c0.865,-1.308 2.043,-2.162 3.533,-2.561Z" style="fill-rule:nonzero;"/><path d="M431.986,231.258l9.951,-3.291c-0.27,1.322 -0.735,2.957 -1.394,4.905c-0.659,1.947 -1.38,4.05 -2.164,6.309c-0.783,2.259 -1.566,4.586 -2.347,6.983c-0.782,2.397 -1.467,4.699 -2.056,6.906c-0.59,2.206 -1.003,4.227 -1.241,6.061c-0.237,1.835 -0.2,3.335 0.113,4.501c0.434,1.62 1.461,2.213 3.08,1.779c1.556,-0.416 3.418,-1.888 5.589,-4.414c2.17,-2.526 4.314,-5.67 6.431,-9.432c0.901,-1.561 1.793,-3.223 2.674,-4.987c0.882,-1.764 1.719,-3.499 2.512,-5.205c0.793,-1.705 1.515,-3.287 2.166,-4.747c0.65,-1.459 1.163,-2.655 1.538,-3.589l0.784,0.207c-1.077,2.719 -2.348,5.75 -3.813,9.094c-1.465,3.344 -3.336,6.988 -5.613,10.932c-2.276,3.943 -4.657,7.307 -7.14,10.09c-2.483,2.784 -5.215,4.575 -8.196,5.373c-2.073,0.556 -3.82,0.451 -5.24,-0.314c-1.421,-0.765 -2.339,-1.926 -2.756,-3.481c-0.139,-0.518 -0.237,-1.013 -0.293,-1.484c-0.057,-0.471 -0.056,-0.853 0.005,-1.147l-0.195,0.052c-1.401,2.806 -3.156,5.325 -5.267,7.558c-2.11,2.232 -4.623,3.738 -7.539,4.52c-1.555,0.416 -2.961,0.481 -4.219,0.193c-1.258,-0.288 -2.361,-0.843 -3.311,-1.665c-0.949,-0.822 -1.755,-1.822 -2.418,-2.998c-0.662,-1.177 -1.176,-2.446 -1.54,-3.806c-0.851,-3.175 -0.827,-6.585 0.072,-10.228c0.898,-3.644 2.333,-7.101 4.304,-10.373c1.971,-3.271 4.38,-6.138 7.226,-8.603c2.847,-2.464 5.761,-4.095 8.741,-4.894c2.268,-0.608 4.18,-0.599 5.736,0.026c1.557,0.624 3.034,1.86 4.432,3.708l1.388,-4.539Zm-22.491,32.694c0.504,1.879 1.25,3.433 2.239,4.661c0.988,1.228 2.487,1.573 4.496,1.035c1.343,-0.43 2.617,-1.379 3.82,-2.847c1.204,-1.468 2.286,-3.199 3.245,-5.192c0.959,-1.993 1.805,-4.147 2.539,-6.462c0.734,-2.315 1.302,-4.602 1.703,-6.863c0.401,-2.26 0.639,-4.355 0.712,-6.284c0.073,-1.93 -0.055,-3.51 -0.385,-4.741c-0.469,-1.75 -1.157,-3.024 -2.066,-3.822c-0.908,-0.798 -2.302,-0.946 -4.181,-0.442c-1.49,0.399 -2.875,1.256 -4.154,2.572c-1.28,1.315 -2.417,2.904 -3.41,4.768c-0.994,1.863 -1.875,3.887 -2.644,6.073c-0.769,2.185 -1.346,4.371 -1.733,6.558c-0.386,2.187 -0.599,4.24 -0.64,6.161c-0.041,1.921 0.112,3.529 0.459,4.825Z" style="fill-rule:nonzero;"/><path d="M459.746,241.946c0.594,-1.41 1.464,-3.414 2.608,-6.012c1.144,-2.598 2.54,-5.229 4.187,-7.893c1.648,-2.664 3.526,-5.111 5.637,-7.344c2.11,-2.232 4.429,-3.686 6.956,-4.364c2.138,-0.572 3.918,-0.407 5.341,0.496c1.423,0.904 2.368,2.23 2.837,3.98c0.59,2.203 0.497,4.641 -0.28,7.315c-0.776,2.673 -1.699,5.386 -2.767,8.137c-1.068,2.752 -2.017,5.367 -2.846,7.846c-0.829,2.479 -1,4.626 -0.514,6.44c0.208,0.778 0.572,1.357 1.091,1.739c0.519,0.382 1.232,0.451 2.139,0.208c0.907,-0.243 2.227,-1.343 3.96,-3.3c1.732,-1.958 3.877,-5.293 6.434,-10.006c1.987,-3.727 3.77,-7.312 5.347,-10.756c1.577,-3.443 2.758,-6.034 3.542,-7.772l1.103,0.226c-1.147,2.46 -2.552,5.51 -4.215,9.15c-1.664,3.64 -3.498,7.291 -5.503,10.954c-2.414,4.466 -4.604,7.761 -6.57,9.885c-1.966,2.124 -4.212,3.525 -6.739,4.202c-2.462,0.66 -4.459,0.466 -5.99,-0.583c-1.531,-1.048 -2.53,-2.447 -2.999,-4.196c-0.59,-2.203 -0.502,-4.657 0.266,-7.363c0.769,-2.706 1.695,-5.403 2.781,-8.089c1.086,-2.687 2.056,-5.221 2.911,-7.603c0.855,-2.382 1.083,-4.318 0.683,-5.809c-0.191,-0.712 -0.574,-1.235 -1.149,-1.567c-0.575,-0.332 -1.316,-0.376 -2.223,-0.133c-1.296,0.347 -2.658,1.354 -4.086,3.022c-1.429,1.667 -2.859,3.717 -4.29,6.149c-1.432,2.433 -2.827,5.133 -4.184,8.101c-1.358,2.968 -2.602,5.905 -3.733,8.813c-1.13,2.907 -2.105,5.685 -2.922,8.335c-0.818,2.65 -1.431,4.897 -1.84,6.743l-9.738,2.922c1.906,-6.622 3.842,-13.2 5.807,-19.733c1.964,-6.534 3.841,-13.2 5.631,-19.999l10.975,-3.358l-7.895,21.074l0.247,0.143Z" style="fill-rule:nonzero;"/></g></svg>